<mxfile host="app.diagrams.net" modified="2021-08-19T03:40:43.071Z" agent="5.0 (Windows NT 10.0; Win64; x64) AppleWebKit/537.36 (KHTML, like Gecko) Chrome/92.0.4515.131 Safari/537.36 Edg/92.0.902.73" etag="v7KxroFDikPoaLRuFwK5" version="14.9.8" type="github">
  <diagram id="R4k2hZR5oD47_pPI9CDj" name="Page-1">
    <mxGraphModel dx="1422" dy="794" grid="1" gridSize="10" guides="1" tooltips="1" connect="1" arrows="1" fold="1" page="1" pageScale="1" pageWidth="850" pageHeight="1100" math="0" shadow="0">
      <root>
        <mxCell id="0" />
        <mxCell id="1" parent="0" />
        <mxCell id="gTW4-HDHmvzam4sdtIU2-1" value="User" style="shape=umlActor;verticalLabelPosition=bottom;verticalAlign=top;html=1;" vertex="1" parent="1">
          <mxGeometry x="120" y="320" width="30" height="60" as="geometry" />
        </mxCell>
        <mxCell id="gTW4-HDHmvzam4sdtIU2-2" value="Duke&#39;s Bookstore&lt;br&gt;(Web App)" style="shape=umlFrame;whiteSpace=wrap;html=1;width=50;height=80;" vertex="1" parent="1">
          <mxGeometry x="200" y="110" width="450" height="480" as="geometry" />
        </mxCell>
        <mxCell id="gTW4-HDHmvzam4sdtIU2-3" style="edgeStyle=orthogonalEdgeStyle;rounded=0;orthogonalLoop=1;jettySize=auto;html=1;entryX=0.5;entryY=0;entryDx=0;entryDy=0;exitX=1;exitY=0.5;exitDx=0;exitDy=0;dashed=1;" edge="1" parent="1" source="gTW4-HDHmvzam4sdtIU2-4" target="gTW4-HDHmvzam4sdtIU2-7">
          <mxGeometry relative="1" as="geometry" />
        </mxCell>
        <mxCell id="gTW4-HDHmvzam4sdtIU2-4" value="View &amp;amp; Select Book&lt;br&gt;(catalog)" style="ellipse;whiteSpace=wrap;html=1;" vertex="1" parent="1">
          <mxGeometry x="240" y="220" width="140" height="70" as="geometry" />
        </mxCell>
        <mxCell id="gTW4-HDHmvzam4sdtIU2-5" value="" style="html=1;verticalAlign=bottom;labelBackgroundColor=none;endArrow=block;endFill=1;entryX=0;entryY=0.5;entryDx=0;entryDy=0;" edge="1" parent="1" target="gTW4-HDHmvzam4sdtIU2-4">
          <mxGeometry width="160" relative="1" as="geometry">
            <mxPoint x="160" y="320" as="sourcePoint" />
            <mxPoint x="310" y="330" as="targetPoint" />
          </mxGeometry>
        </mxCell>
        <mxCell id="gTW4-HDHmvzam4sdtIU2-6" style="edgeStyle=orthogonalEdgeStyle;rounded=0;orthogonalLoop=1;jettySize=auto;html=1;entryX=0;entryY=0.5;entryDx=0;entryDy=0;" edge="1" parent="1" source="gTW4-HDHmvzam4sdtIU2-7" target="gTW4-HDHmvzam4sdtIU2-8">
          <mxGeometry relative="1" as="geometry" />
        </mxCell>
        <mxCell id="gTW4-HDHmvzam4sdtIU2-7" value="View &amp;amp; Modify&lt;br&gt;the shopping cart" style="ellipse;whiteSpace=wrap;html=1;" vertex="1" parent="1">
          <mxGeometry x="290" y="350" width="140" height="70" as="geometry" />
        </mxCell>
        <mxCell id="gTW4-HDHmvzam4sdtIU2-8" value="Purchase in the cart" style="ellipse;whiteSpace=wrap;html=1;" vertex="1" parent="1">
          <mxGeometry x="460" y="350" width="140" height="70" as="geometry" />
        </mxCell>
        <mxCell id="gTW4-HDHmvzam4sdtIU2-9" value="Owner" style="shape=umlActor;verticalLabelPosition=bottom;verticalAlign=top;html=1;" vertex="1" parent="1">
          <mxGeometry x="750" y="300" width="30" height="60" as="geometry" />
        </mxCell>
        <mxCell id="gTW4-HDHmvzam4sdtIU2-10" value="Data in Database" style="ellipse;whiteSpace=wrap;html=1;" vertex="1" parent="1">
          <mxGeometry x="460" y="460" width="140" height="70" as="geometry" />
        </mxCell>
        <mxCell id="gTW4-HDHmvzam4sdtIU2-11" value="" style="html=1;verticalAlign=bottom;labelBackgroundColor=none;endArrow=block;endFill=1;entryX=1;entryY=0.5;entryDx=0;entryDy=0;exitX=0;exitY=0.3333333333333333;exitDx=0;exitDy=0;exitPerimeter=0;" edge="1" parent="1" source="gTW4-HDHmvzam4sdtIU2-9" target="gTW4-HDHmvzam4sdtIU2-10">
          <mxGeometry width="160" relative="1" as="geometry">
            <mxPoint x="160" y="340" as="sourcePoint" />
            <mxPoint x="250" y="265" as="targetPoint" />
          </mxGeometry>
        </mxCell>
        <mxCell id="gTW4-HDHmvzam4sdtIU2-12" value="store" style="html=1;verticalAlign=bottom;endArrow=open;dashed=1;endSize=8;entryX=0.5;entryY=0;entryDx=0;entryDy=0;exitX=0.5;exitY=1;exitDx=0;exitDy=0;" edge="1" parent="1" source="gTW4-HDHmvzam4sdtIU2-8" target="gTW4-HDHmvzam4sdtIU2-10">
          <mxGeometry relative="1" as="geometry">
            <mxPoint x="520" y="390" as="sourcePoint" />
            <mxPoint x="440" y="390" as="targetPoint" />
          </mxGeometry>
        </mxCell>
        <mxCell id="gTW4-HDHmvzam4sdtIU2-13" value="" style="html=1;verticalAlign=bottom;labelBackgroundColor=none;endArrow=block;endFill=1;entryX=0;entryY=0.5;entryDx=0;entryDy=0;" edge="1" parent="1" target="gTW4-HDHmvzam4sdtIU2-7">
          <mxGeometry width="160" relative="1" as="geometry">
            <mxPoint x="160" y="350" as="sourcePoint" />
            <mxPoint x="250" y="264.9999999999999" as="targetPoint" />
          </mxGeometry>
        </mxCell>
      </root>
    </mxGraphModel>
  </diagram>
</mxfile>
